HIERARCHY
ROOT root
{
	OFFSET	0	13.1	24.9
	CHANNELS 6  Xposition Yposition Zposition Xrotation Yrotation Zrotation
	JOINT spine_1
	{
		OFFSET	0	9.99999	0
		CHANNELS 3  Xrotation Yrotation Zrotation
		JOINT spine_2
		{
			OFFSET	0	112	-10
			CHANNELS 3  Xrotation Yrotation Zrotation
			JOINT spine_3
			{
				OFFSET	0	206.5	19.3
				CHANNELS 3  Xrotation Yrotation Zrotation
				JOINT spine_4
				{
					OFFSET	0	110.4	14.6
					CHANNELS 3  Xrotation Yrotation Zrotation
					JOINT neck_1
					{
						OFFSET	0	71.8	-50.3
						CHANNELS 3  Xrotation Yrotation Zrotation
						JOINT neck_2
						{
							OFFSET	0	86.2	-25.8
							CHANNELS 3  Xrotation Yrotation Zrotation
							JOINT head_ee
							{
								OFFSET	0	179.8	-8.7
								CHANNELS 3  Xrotation Yrotation Zrotation
								End Site
								{
									OFFSET	1	0	0
								}
							}
						}
					}
					JOINT left_clavicle
					{
						OFFSET	-43.2	22.4	-70.8
						CHANNELS 3  Xrotation Yrotation Zrotation
						JOINT left_shoulder
						{
							OFFSET	-93.9	-5.79999	48.7
							CHANNELS 3  Xrotation Yrotation Zrotation
							JOINT left_elbow
							{
								OFFSET	-291.4	-30.8	15.2
								CHANNELS 3  Xrotation Yrotation Zrotation
								JOINT left_lowarm_twist
								{
									OFFSET	-110.7	-3.89999	13.6
									CHANNELS 3  Xrotation Yrotation Zrotation
									JOINT left_hand
									{
										OFFSET	-110.7	-3.89999	13.6
										CHANNELS 3  Xrotation Yrotation Zrotation
										JOINT left_ee
										{
											OFFSET	-80.8	-5.10001	12.1
											CHANNELS 3  Xrotation Yrotation Zrotation
											End Site
											{
												OFFSET	1	0	0
											}
										}
									}
								}
							}
						}
					}
					JOINT right_clavicle
					{
						OFFSET	43.2	22.4	-70.8
						CHANNELS 3  Xrotation Yrotation Zrotation
						JOINT right_shoulder
						{
							OFFSET	93.9	-5.79999	48.7
							CHANNELS 3  Xrotation Yrotation Zrotation
							JOINT right_elbow
							{
								OFFSET	291.4	-30.8	15.2
								CHANNELS 3  Xrotation Yrotation Zrotation
								JOINT right_lowarm_twist
								{
									OFFSET	110.7	-3.89999	13.6
									CHANNELS 3  Xrotation Yrotation Zrotation
									JOINT right_hand
									{
										OFFSET	110.7	-3.89999	13.6
										CHANNELS 3  Xrotation Yrotation Zrotation
										JOINT right_ee
										{
											OFFSET	80.8	-5.10001	12.1
											CHANNELS 3  Xrotation Yrotation Zrotation
											End Site
											{
												OFFSET	1	0	0
											}
										}
									}
								}
							}
						}
					}
				}
			}
		}
	}
	JOINT left_hip
	{
		OFFSET	-82.8	-127.5	0.300001
		CHANNELS 3  Xrotation Yrotation Zrotation
		JOINT left_knee
		{
			OFFSET	-28.2	-396.7	2.2
			CHANNELS 3  Xrotation Yrotation Zrotation
			JOINT left_ankle
			{
				OFFSET	-11.7	-411.3	35.4
				CHANNELS 3  Xrotation Yrotation Zrotation
				JOINT left_toes
				{
					OFFSET	0	-60	-88.6
					CHANNELS 3  Xrotation Yrotation Zrotation
					JOINT left_foot_ee
					{
						OFFSET	-22.5	-16.5	-42.2
						CHANNELS 3  Xrotation Yrotation Zrotation
						End Site
						{
							OFFSET	1	0	0
						}
					}
				}
			}
		}
	}
	JOINT right_hip
	{
		OFFSET	82.8	-127.5	0.300001
		CHANNELS 3  Xrotation Yrotation Zrotation
		JOINT right_knee
		{
			OFFSET	28.2	-396.7	2.2
			CHANNELS 3  Xrotation Yrotation Zrotation
			JOINT right_ankle
			{
				OFFSET	11.7	-411.3	35.4
				CHANNELS 3  Xrotation Yrotation Zrotation
				JOINT right_toes
				{
					OFFSET	0	-60	-88.6
					CHANNELS 3  Xrotation Yrotation Zrotation
					JOINT right_foot_ee
					{
						OFFSET	22.5	-16.5	-42.2
						CHANNELS 3  Xrotation Yrotation Zrotation
						End Site
						{
							OFFSET	1	0	0
						}
					}
				}
			}
		}
	}
}
MOTION
Frames: 12
Frame Time: 0.02
1224.83 729.421 -626.046 169.855 -70.2333 175.282 -1.05068 -0.161228 -1.16177 -1.04993 -0.0869802 -1.16967 -1.04756 0.182033 -1.15869 -1.04943 -0.00323233 -1.1729 -22.8309 8.0562 9.33164 -22.7967 11.2896 12.3813 -0.0 0.0 -0.0 6.59455 10.3204 12.6468 9.37293 -15.5643 58.2116 1.2561 -31.89 0.358889 -64.7936 -5.88421 5.22523 -1.37846 7.79224 -5.70191 -0.0 0.0 -0.0 10.3282 21.9545 -19.9866 -16.3102 -5.08872 -60.5452 0.509618 14.1685 -0.0633343 7.35904 -0.200555 0.917994 -0.497348 -14.7098 -2.92877 0.0 0.0 0.0 -0.489499 15.4835 -4.88162 -0.705055 0.0283887 0.104474 23.4699 8.897 -3.15352 -16.9875 0.0 0.0 -0.0 0.0 -0.0 29.546 26.06 -12.7527 -60.8426 2.29165 -8.61762 -6.55434 -4.80971 -0.974208 -29.658 0.0 0.0 0.0 0.0 0.0 
1239.59 729.187 -627.273 170.408 -67.7531 175.512 -0.978336 -0.0129322 -1.16425 -0.977584 0.0611734 -1.16272 -0.978355 0.323373 -1.11852 -0.980072 0.142677 -1.15555 -22.1467 8.06257 9.62202 -22.0774 11.0533 12.5518 -0.0 0.0 -0.0 6.6226 10.6019 12.6866 9.79459 -16.1937 56.5801 1.31236 -33.0265 0.389084 -66.1192 -6.05207 5.25058 -1.57092 5.1604 -8.17774 -0.0 0.0 -0.0 10.2353 21.5775 -19.8092 -16.4966 -6.35709 -59.919 0.432047 12.0806 -0.0457175 7.60484 -0.205208 0.949048 -1.10496 -16.9377 -0.142094 0.0 0.0 0.0 -2.50345 17.3689 -3.73592 0.0962603 -0.0039756 -0.014237 25.9386 8.76612 -3.44126 -17.4801 0.0 0.0 -0.0 0.0 -0.0 31.1334 19.7617 -11.6798 -56.0993 1.79383 -8.08187 -9.4532 -6.66646 -1.40913 -31.3539 0.0 0.0 0.0 0.0 0.0 
1252.18 727.785 -627.659 170.187 -67.6045 175.614 -0.941596 -0.34255 -1.24035 -0.940779 -0.262936 -1.25962 -0.934222 0.0286417 -1.28645 -0.936489 -0.174872 -1.27483 -23.4669 7.66787 10.7095 -23.3145 10.0302 13.5457 -0.0 0.0 -0.0 6.75143 10.5567 12.9161 10.2026 -16.629 54.9508 1.41393 -35.0061 0.445914 -66.6592 -6.12061 5.25978 -1.88653 3.25386 -11.1791 -0.0 0.0 -0.0 9.8493 21.392 -18.9589 -16.128 -7.33376 -59.5246 0.390155 10.939 -0.0373581 7.94191 -0.211372 0.991663 -2.06461 -22.1207 3.16725 0.0 0.0 0.0 -4.53179 19.3107 -3.1647 3.49223 -0.159483 -0.512021 24.9887 7.86853 -3.33015 -20.928 0.0 0.0 -0.0 0.0 -0.0 32.4453 19.1576 -11.8406 -40.8557 0.522104 -6.11765 -13.1065 -4.59211 -1.96627 -35.4578 0.0 0.0 0.0 0.0 0.0 
1265.58 724.491 -629.478 171.603 -66.306 177.062 -0.740264 -0.453566 -1.37121 -0.739292 -0.365402 -1.39729 -0.729446 -0.045238 -1.44356 -0.73225 -0.27263 -1.41831 -23.6892 7.79036 11.291 -23.5035 10.0527 14.1675 -0.0 0.0 -0.0 6.91617 11.1723 13.1811 10.6474 -17.587 53.8265 1.54201 -37.3723 0.521553 -68.4983 -6.35454 5.28625 -1.97879 1.91513 -12.4361 -0.0 0.0 -0.0 9.24424 19.5148 -17.7529 -15.8365 -8.06009 -58.5523 0.440847 12.3192 -0.047577 8.76798 -0.225416 1.09625 -3.18163 -28.9508 5.8212 0.0 0.0 0.0 -5.72296 22.7648 -2.0465 5.00951 -0.238464 -0.731336 26.4172 8.94127 -3.49633 -23.7507 0.0 0.0 -0.0 0.0 -0.0 32.6623 20.4501 -12.5578 -31.9764 0.0366969 -4.84398 -15.3526 -6.10326 -2.30438 -38.5583 0.0 0.0 0.0 0.0 0.0 
1280.59 723.22 -628.016 172.862 -64.7686 178.276 -0.714873 -0.199084 -1.50055 -0.713626 -0.103207 -1.51018 -0.710031 0.235091 -1.49534 -0.713151 -0.00399165 -1.51369 -23.1847 8.387 11.8234 -22.9865 10.8695 14.863 -0.0 0.0 -0.0 6.93207 11.282 13.2041 11.4584 -17.7474 52.5163 1.67218 -39.6334 0.602612 -70.9685 -6.66968 5.3099 -2.61055 0.95503 -17.2533 -0.0 0.0 -0.0 9.0462 18.4832 -17.3851 -15.4901 -9.00082 -57.7627 0.412416 11.5468 -0.0416984 9.99673 -0.243512 1.25216 -3.20289 -28.8116 6.01552 0.0 0.0 0.0 -6.75494 25.8288 -1.50052 4.29821 -0.200713 -0.628777 29.9747 5.6265 -3.88551 -23.8533 0.0 0.0 -0.0 0.0 -0.0 33.2685 21.8841 -13.4203 -24.7398 -0.209349 -3.76136 -6.46641 -8.87253 -0.958874 -40.1462 0.0 0.0 0.0 0.0 0.0 
1291.7 725.669 -629.255 173.384 -63.7315 178.985 -0.752789 -0.0175717 -1.51416 -0.751517 0.0788024 -1.51221 -0.752867 0.414144 -1.45654 -0.755784 0.178942 -1.50365 -23.9512 7.87263 12.3857 -23.6847 9.78716 15.2452 -0.0 0.0 -0.0 7.19275 13.697 13.5254 11.7576 -18.953 52.5204 1.93618 -43.8002 0.778405 -74.4859 -7.11918 5.31993 -2.99275 0.372984 -20.2399 -0.0 0.0 -0.0 8.86526 17.8303 -17.0278 -15.0431 -9.64279 -57.3779 0.403983 11.3168 -0.0400269 11.5778 -0.261871 1.45327 -3.39063 -28.8469 7.01125 0.0 0.0 0.0 -7.52429 26.7966 -1.50628 4.61681 -0.217464 -0.67477 29.4706 8.19913 -3.83353 -25.3146 0.0 0.0 -0.0 0.0 -0.0 33.3686 23.8629 -13.5768 -20.1512 -0.293811 -3.06248 -6.35277 -6.18895 -0.94268 -38.6692 0.0 0.0 0.0 0.0 0.0 
1305.87 722.683 -627.615 173.334 -63.0698 178.622 -0.79962 0.0366869 -1.476 -0.798418 0.130524 -1.47068 -0.801116 0.456492 -1.40413 -0.803795 0.229032 -1.45859 -24.7118 7.54065 12.8231 -24.3993 9.12218 15.5956 -0.0 0.0 -0.0 7.31983 14.2858 13.703 12.0859 -19.4817 51.8851 2.10695 -46.2198 0.899204 -76.8353 -7.41917 5.31115 -3.31131 0.982813 -22.2115 -0.0 0.0 -0.0 8.70994 17.0186 -16.736 -14.4921 -10.6794 -57.1628 0.376388 10.5618 -0.0347901 12.8859 -0.27286 1.61999 -3.50499 -28.8729 7.61607 0.0 0.0 0.0 -8.87755 28.2097 -1.14781 4.58844 -0.215962 -0.670679 31.3057 6.68188 -4.02633 -25.1245 0.0 0.0 -0.0 0.0 -0.0 34.2246 25.4154 -13.4246 -16.8199 -0.319944 -2.55209 -3.11484 -5.13173 -0.459792 -38.0759 0.0 0.0 0.0 0.0 0.0 
1324.65 718.798 -628.793 172.193 -62.8829 177.261 -0.928776 -0.0251234 -1.42607 -0.927647 0.0656624 -1.42477 -0.928577 0.386033 -1.37306 -0.931171 0.164361 -1.41679 -26.4139 7.07973 13.3783 -26.0518 8.37991 16.128 -0.0 0.0 -0.0 7.55285 14.8285 14.0575 12.2223 -19.7457 51.5146 2.33511 -49.1497 1.06798 -79.5725 -7.76757 5.2853 -3.63473 2.17706 -23.9226 -0.0 0.0 -0.0 8.54493 16.2505 -16.4188 -14.1 -11.6659 -56.1257 0.346084 9.7284 -0.0294521 14.1929 -0.280036 1.78677 -3.82245 -28.8286 9.37163 0.0 0.0 0.0 -11.9402 29.5485 0.590322 4.74519 -0.224286 -0.693279 31.3808 5.26567 -4.03419 -24.893 0.0 0.0 -0.0 0.0 -0.0 34.8658 26.1756 -13.0566 -14.4795 -0.320541 -2.19304 -0.631648 -3.2768 -0.0929507 -36.2762 0.0 0.0 0.0 0.0 0.0 
1336.97 716.585 -631.16 172.099 -63.3303 177.033 -1.09122 -0.19388 -1.6156 -1.08977 -0.0906964 -1.62466 -1.08606 0.283279 -1.60235 -1.08964 0.0266973 -1.62697 -28.2752 6.83863 13.9034 -27.8815 8.12992 16.7798 -0.0 0.0 -0.0 7.7803 14.8465 14.4396 12.29 -19.631 51.4175 2.54462 -51.566 1.22934 -82.1622 -8.09544 5.24541 -3.49903 3.95349 -21.9787 -0.0 0.0 -0.0 8.83697 16.657 -17.037 -11.97 -12.7196 -54.1794 0.197782 5.59586 -0.00966599 16.8548 -0.28288 2.12672 -4.25347 -28.9439 11.6626 0.0 0.0 0.0 -13.145 31.6072 1.76892 5.8259 -0.283362 -0.848472 30.0264 2.3819 -3.89919 -25.7876 0.0 0.0 -0.0 0.0 -0.0 34.6539 27.2891 -12.4697 -10.2694 -0.284715 -1.5482 1.40057 -2.01182 0.205518 -33.6711 0.0 0.0 0.0 0.0 0.0 
1352.5 712.461 -630.843 171.688 -63.5213 176.145 -1.24842 -0.304216 -1.55758 -1.24709 -0.204499 -1.57377 -1.24024 0.165056 -1.5784 -1.24371 -0.0862611 -1.58465 -28.2648 7.30648 13.6389 -27.9313 9.1222 16.7934 -0.0 0.0 -0.0 8.11332 15.1229 14.9781 12.6546 -19.8291 51.0639 2.64917 -52.6832 1.31187 -85.0024 -8.45223 5.18452 -3.59502 7.31809 -20.798 -0.0 0.0 -0.0 8.66445 16.3284 -16.6766 -11.1462 -13.9007 -53.4665 0.205835 5.82215 -0.010467 20.5995 -0.260153 2.6044 -4.3374 -28.9701 12.1082 0.0 0.0 0.0 -15.1035 32.2217 2.87261 5.5592 -0.268511 -0.810275 30.676 0.184216 -3.98071 -26.1161 0.0 0.0 -0.0 0.0 -0.0 34.9409 28.2297 -12.2291 -6.66975 -0.216595 -1.00012 1.89462 0.823252 0.279526 -31.4171 0.0 0.0 0.0 0.0 0.0 
1367.46 708.112 -627.985 170.569 -63.6648 175.544 -1.39099 -0.323229 -1.68782 -1.38943 -0.215189 -1.70496 -1.38152 0.189218 -1.70804 -1.38558 -0.082868 -1.71648 -27.5885 7.13428 14.0977 -27.1856 8.47619 17.0066 -0.0 0.0 -0.0 8.30198 14.6966 15.3381 12.0561 -20.0903 50.916 2.87764 -54.9394 1.4963 -85.2146 -8.47874 5.17926 -3.02105 7.93413 -16.5114 -0.0 0.0 -0.0 8.68312 16.375 -16.7149 -10.2802 -15.7333 -53.676 0.189512 5.36327 -0.00887623 22.9832 -0.229448 2.90731 -4.6032 -29.1508 13.4564 0.0 0.0 0.0 -15.3856 32.2334 1.49664 3.34527 -0.152143 -0.490673 32.6014 -1.87352 -4.19754 -26.0429 0.0 0.0 -0.0 0.0 -0.0 34.4982 28.729 -12.5233 -2.63614 -0.0995281 -0.392283 0.336414 6.15845 0.0508239 -27.9155 0.0 0.0 0.0 0.0 0.0 
1380.03 705.288 -627.144 171.423 -63.7428 175.571 -1.48013 -0.0970535 -1.60296 -1.4787 0.00513049 -1.60589 -1.47769 0.382976 -1.55957 -1.48106 0.131898 -1.60047 -27.5298 7.04542 13.893 -27.1385 8.36677 16.7604 -0.0 0.0 -0.0 8.42119 13.9259 15.6152 12.7511 -20.1968 51.7307 2.98516 -55.9205 1.58484 -85.125 -8.46755 5.18149 -2.93176 11.1839 -14.1812 -0.0 0.0 -0.0 8.57929 16.5077 -16.4792 -8.33214 -17.5967 -53.8256 0.201265 5.69376 -0.0100085 25.7845 -0.177296 3.2613 -4.77289 -29.1495 14.4014 0.0 0.0 0.0 -16.4991 33.6185 2.52531 3.82446 -0.176279 -0.560218 33.1091 -4.26437 -4.27646 -26.961 0.0 0.0 -0.0 0.0 -0.0 35.0121 30.087 -11.7501 -1.37593 -0.0542036 -0.204193 -2.64492 6.4411 -0.403013 -26.3118 0.0 0.0 0.0 0.0 0.0 
